<svg xmlns="http://www.w3.org/2000/svg" xmlns:xlink="http://www.w3.org/1999/xlink" id="Layer_1" width="960" height="560" x="0" y="0" enable-background="new 0 0 960 560" version="1.1" viewBox="0 0 960 560" xml:space="preserve"><circle cx="480.5" cy="281.5" r="279.5" stroke="#000" stroke-miterlimit="10"/><g><path fill="#66FCF1" d="M387.102,231.1h-72.9V211h96.6v153.6c0,20.199-5.151,35.25-15.45,45.15 c-10.303,9.9-24.553,14.85-42.75,14.85c-5.4,0-10.65-0.703-15.75-2.1c-5.1-1.401-9.853-3.052-14.25-4.95 c-4.402-1.903-8.25-3.853-11.55-5.85c-3.3-2.002-5.751-3.601-7.35-4.8l9.938-19.5c5.418,3.998,11.587,7.5,18.516,10.5 c6.923,3,14.1,4.5,21.525,4.5c12.042,0,20.625-3.75,25.744-11.25s7.678-17.851,7.678-31.051V231.1z M374.202,168.4 c0-5.4,1.8-10.05,5.4-13.95c3.6-3.9,8.198-5.85,13.8-5.85c5.798,0,10.65,1.95,14.55,5.85c3.9,3.9,5.85,8.55,5.85,13.95 c0,5.203-1.95,9.6-5.85,13.2c-3.9,3.6-8.752,5.4-14.55,5.4c-5.602,0-10.2-1.8-13.8-5.4S374.202,173.603,374.202,168.4z"/><path fill="#66FCF1" d="M624.699,342.1c-3.6,3.202-7.852,6.202-12.75,9c-4.902,2.804-10.252,5.203-16.05,7.2 c-5.804,2.002-11.851,3.549-18.149,4.65c-6.301,1.097-12.652,1.649-19.051,1.649c-12,0-22.604-1.852-31.8-5.55 c-9.202-3.698-16.903-9-23.101-15.899c-6.201-6.9-10.902-15.15-14.1-24.75c-3.201-9.601-4.8-20.4-4.8-32.4 c0-12.6,1.749-23.798,5.25-33.6c3.497-9.797,8.55-18,15.149-24.6c6.601-6.6,14.598-11.648,24-15.15 c9.398-3.497,19.898-5.25,31.5-5.25c8.4,0,16.697,1.102,24.9,3.3c8.199,2.203,15.451,6.352,21.75,12.45 c6.301,6.103,11.146,14.503,14.551,25.2c3.398,10.702,4.598,24.553,3.6,41.55H509.799c0,18,4.838,31.453,14.514,40.35 c9.674,8.901,22.588,13.35,38.746,13.35c5.387,0,10.721-0.646,16.008-1.949c5.287-1.299,10.322-2.851,15.113-4.65 c4.785-1.8,9.023-3.797,12.717-6c3.689-2.198,6.529-4.2,8.527-6L624.699,342.1z M561.535,227.2c-6.581,0-12.811,0.703-18.689,2.1 c-5.883,1.402-11.066,3.75-15.553,7.05c-4.486,3.3-8.175,7.603-11.063,12.9c-2.893,5.302-4.734,11.85-5.531,19.65h93 c-0.998-13.2-5.236-23.447-12.713-30.75C583.51,230.852,573.695,227.2,561.535,227.2z"/></g></svg>